# xmcd
#
# Track frame offsets:
#	150
#	14753
#	32680
#	52659
#	70258
#	91235
#	105910
#	128391
#
# Disc length: 1920 seconds
#
# Revision: 0
# Processed by: cddbd v1.5.2PL0 Copyright (c) Steve Scherf et al.
# Submitted via: EZCDAudioConverter 8.0.2.1
#
DISCID=55077e08
DTITLE=Thúy Nga - Ca Nhạc hài. Đám Cưới Tụi Mình... Ông Xã Em Number 1
DYEAR=2011
DGENRE=
TTITLE0=Thúy Nga, Chí Tài - Thiên duyên tiền định
TTITLE1=Thúy Nga - Ông Xã Em Number One
TTITLE2=Thúy Nga - Duyên tình
TTITLE3=Thúy Nga, Tấn Beo - Đám Cưới Tụi Mình
TTITLE4=Thúy Nga - Ngày xuân vui cưới
TTITLE5=Thúy Nga, Thanh Bạch - Có nghĩa gì đâu
TTITLE6=Thúy Nga, Hoài Linh - Túp lều lý tưởng
TTITLE7=Thúy Nga - Quê hương ba miền
EXTD=
EXTT0=
EXTT1=
EXTT2=
EXTT3=
EXTT4=
EXTT5=
EXTT6=
EXTT7=
PLAYORDER=
